<svg xmlns="http://www.w3.org/2000/svg" data-name="Layer 1" viewBox="0 0 24 24" xmlns:xlink="http://www.w3.org/1999/xlink" xml:space="preserve" width="100%" height="100%"><path xmlns="http://www.w3.org/2000/svg" d="M6 6a2 2 0 0 1 2-2 1 1 0 0 0 0-2 4 4 0 0 0-4 4v3a2 2 0 0 1-2 2 1 1 0 0 0 0 2 2 2 0 0 1 2 2v3a4 4 0 0 0 4 4 1 1 0 0 0 0-2 2 2 0 0 1-2-2v-3a4 4 0 0 0-1.38-3A4 4 0 0 0 6 9zm16 5a2 2 0 0 1-2-2V6a4 4 0 0 0-4-4 1 1 0 0 0 0 2 2 2 0 0 1 2 2v3a4 4 0 0 0 1.38 3A4 4 0 0 0 18 15v3a2 2 0 0 1-2 2 1 1 0 0 0 0 2 4 4 0 0 0 4-4v-3a2 2 0 0 1 2-2 1 1 0 0 0 0-2z" style="fill: rgb(255, 255, 255);"></path></svg>