<svg viewBox="0 0 256 256" xmlns="http://www.w3.org/2000/svg"><path d="m168 144a12 12 0 0 1 -12 12h-16v16a12 12 0 0 1 -24 0v-16h-16a12 12 0 0 1 0-24h16v-16a12 12 0 0 1 24 0v16h16a12 12 0 0 1 12 12zm68.00781-64v128a20.02229 20.02229 0 0 1 -20 20h-176a20.02229 20.02229 0 0 1 -20-20v-128a20.02229 20.02229 0 0 1 20-20h35.99219v-8a28.03146 28.03146 0 0 1 28-28h48a28.03146 28.03146 0 0 1 28 28v8h36.00781a20.02229 20.02229 0 0 1 20 20zm-136.00781-20h56v-8a4.00458 4.00458 0 0 0 -4-4h-48a4.00458 4.00458 0 0 0 -4 4zm112.00781 24h-168v120h168z"/></svg>