<svg width="256" height="256" xmlns="http://www.w3.org/2000/svg">

 <g>
  <title>background</title>
  <rect fill="none" id="canvas_background" height="402" width="582" y="-1" x="-1"/>
 </g>
 <g>
  <title>Layer 1</title>
  <path fill="#fcfcfc" id="svg_1" d="m168,144.507933a12,12 0 0 1 -12,12l-16,0l0,16a12,12 0 0 1 -24,0l0,-16l-16,0a12,12 0 0 1 0,-24l16,0l0,-16a12,12 0 0 1 24,0l0,16l16,0a12,12 0 0 1 12,12zm68.00781,-64l0,128a20.02229,20.02229 0 0 1 -20,20l-176,0a20.02229,20.02229 0 0 1 -20,-20l0,-128a20.02229,20.02229 0 0 1 20,-20l35.99219,0l0,-8a28.03146,28.03146 0 0 1 28,-28l48,0a28.03146,28.03146 0 0 1 28,28l0,8l36.00781,0a20.02229,20.02229 0 0 1 20,20zm-136.00781,-20l56,0l0,-8a4.00458,4.00458 0 0 0 -4,-4l-48,0a4.00458,4.00458 0 0 0 -4,4l0,8zm112.00781,24l-168,0l0,120l168,0l0,-120z"/>
 </g>
</svg>